<?xml version="1.0" encoding="utf-8"?>
<!-- Generator: Adobe Illustrator 26.0.3, SVG Export Plug-In . SVG Version: 6.00 Build 0)  -->
<svg version="1.1" id="Layer_1" xmlns="http://www.w3.org/2000/svg" xmlns:xlink="http://www.w3.org/1999/xlink" x="0px" y="0px"
	 width="50px" height="50px" viewBox="0 0 50 50" enable-background="new 0 0 50 50" xml:space="preserve">
<rect x="17" y="0" fill="#E6E6E6" width="14.4" height="18.3"/>
<g>
	<path fill="#1A1A1A" d="M31.3,0.1v18.2h0l5.5,4.7v4.3H11.5v-4.3l5.5-4.7h0V0.1H31.3 M31.3-2.9H17c-1.7,0-3,1.3-3,3v16.8l-4.5,3.8
		c-0.7,0.6-1.1,1.4-1.1,2.3v4.3c0,1.7,1.3,3,3,3h25.4c1.7,0,3-1.3,3-3v-4.3c0-0.9-0.4-1.7-1.1-2.3l-4.5-3.8l0-16.8
		C34.3-1.6,33-2.9,31.3-2.9L31.3-2.9z"/>
</g>
<polygon fill="#E6E6E6" points="31.3,18.3 17,18.3 11.5,22.9 11.5,27.2 36.9,27.2 36.9,22.9 "/>
<line fill="none" stroke="#1A1A1A" stroke-linecap="round" stroke-linejoin="round" stroke-miterlimit="10" x1="11.5" y1="22.9" x2="28.3" y2="22.9"/>
<line fill="none" stroke="#1A1A1A" stroke-linecap="round" stroke-linejoin="round" stroke-miterlimit="10" x1="36.9" y1="22.9" x2="33.3" y2="22.9"/>
<rect x="17" y="0" fill="#B3B3B3" width="4.8" height="18.3"/>
<line fill="none" stroke="#1A1A1A" stroke-linecap="round" stroke-linejoin="round" stroke-miterlimit="10" x1="17" y1="12.9" x2="31.3" y2="12.9"/>
<line fill="none" stroke="#1A1A1A" stroke-linecap="round" stroke-linejoin="round" stroke-miterlimit="10" x1="17" y1="7.5" x2="31.3" y2="7.5"/>
<rect x="17" y="0" fill="none" stroke="#1A1A1A" stroke-linecap="round" stroke-linejoin="round" stroke-miterlimit="10" width="14.4" height="18.2"/>
<line fill="none" stroke="#1A1A1A" stroke-width="2" stroke-linecap="round" stroke-linejoin="round" stroke-miterlimit="10" x1="14.1" y1="32.8" x2="14.1" y2="38.7"/>
<line fill="none" stroke="#1A1A1A" stroke-width="2" stroke-linecap="round" stroke-linejoin="round" stroke-miterlimit="10" x1="18" y1="32.8" x2="18" y2="44.2"/>
<line fill="none" stroke="#1A1A1A" stroke-width="2" stroke-linecap="round" stroke-linejoin="round" stroke-miterlimit="10" x1="20.6" y1="33.4" x2="20.6" y2="34.2"/>
<line fill="none" stroke="#1A1A1A" stroke-width="2" stroke-linecap="round" stroke-linejoin="round" stroke-miterlimit="10" x1="20.6" y1="38.7" x2="20.6" y2="47"/>
<line fill="none" stroke="#1A1A1A" stroke-width="2" stroke-linecap="round" stroke-linejoin="round" stroke-miterlimit="10" x1="25" y1="32.8" x2="25" y2="37.7"/>
<line fill="none" stroke="#1A1A1A" stroke-width="2" stroke-linecap="round" stroke-linejoin="round" stroke-miterlimit="10" x1="25" y1="40.9" x2="25" y2="41.4"/>
<line fill="none" stroke="#1A1A1A" stroke-width="2" stroke-linecap="round" stroke-linejoin="round" stroke-miterlimit="10" x1="29" y1="32.8" x2="29" y2="45.4"/>
<line fill="none" stroke="#1A1A1A" stroke-width="2" stroke-linecap="round" stroke-linejoin="round" stroke-miterlimit="10" x1="32.3" y1="32.5" x2="32.3" y2="36.2"/>
<line fill="none" stroke="#1A1A1A" stroke-width="2" stroke-linecap="round" stroke-linejoin="round" stroke-miterlimit="10" x1="36.2" y1="32.5" x2="36.2" y2="42.8"/>
</svg>
