<svg id="b3d48619-1483-43f7-a308-8219b69f80e9" data-name="Layer 1" xmlns="http://www.w3.org/2000/svg" viewBox="0 0 50 50"><rect x="16.99" width="14.36" height="18.26" transform="translate(48.33 18.26) rotate(-180)" fill="#e6e6e6"/><rect x="17.54" y="0.08" width="2.73" height="18.45" fill="#fff"/><polygon points="16.99 18.26 31.35 18.26 36.88 22.93 36.88 27.18 11.45 27.18 11.45 22.93 16.99 18.26" fill="#e6e6e6"/><rect x="28.94" y="22.93" width="7.95" height="4.25" transform="translate(65.82 50.12) rotate(-180)" fill="#b3b3b3"/><polygon points="28.93 22.93 36.88 22.93 32.51 18.52 26.52 18.52 28.93 22.93" fill="#b3b3b3"/><path d="M31.35.08V18.26h0l5.53,4.67v4.25H11.45V22.93L17,18.26h0V.08H31.35m4-4H13V16.4L8.87,19.88l-1.42,1.2v10.1H40.88V21.08l-1.42-1.2L35.35,16.4V-3.92Z" fill="#1a1a1a"/><line x1="36.88" y1="22.93" x2="19.99" y2="22.93" fill="none" stroke="#1a1a1a" stroke-linecap="round" stroke-linejoin="round"/><line x1="11.45" y1="22.93" x2="14.99" y2="22.93" fill="none" stroke="#1a1a1a" stroke-linecap="round" stroke-linejoin="round"/><rect x="26.52" width="4.82" height="18.26" transform="translate(57.87 18.26) rotate(-180)" fill="#b3b3b3"/><line x1="31.35" y1="12.87" x2="16.99" y2="12.87" fill="none" stroke="#1a1a1a" stroke-linecap="round" stroke-linejoin="round"/><line x1="31.35" y1="7.48" x2="16.99" y2="7.48" fill="none" stroke="#1a1a1a" stroke-linecap="round" stroke-linejoin="round"/><rect x="16.99" width="14.36" height="18.21" transform="translate(48.33 18.21) rotate(-180)" fill="none" stroke="#1a1a1a" stroke-linecap="round" stroke-linejoin="round"/><path d="M35.26,33.43c0,3.33-1.61,3.38-1.61,6.65,0,3.06,1.61,3.06,1.61,6.64" fill="none" stroke="#1a1a1a" stroke-linecap="round" stroke-linejoin="round" stroke-width="2"/><path d="M28.57,33.43c0,3.33-1.61,3.38-1.61,6.65,0,3.06,1.61,3.06,1.61,6.64" fill="none" stroke="#1a1a1a" stroke-linecap="round" stroke-linejoin="round" stroke-width="2"/><path d="M21.88,33.38c0,3.32-1.61,3.38-1.61,6.64,0,3.06,1.61,3.06,1.61,6.64" fill="none" stroke="#1a1a1a" stroke-linecap="round" stroke-linejoin="round" stroke-width="2"/><path d="M14.18,33.43c0,3.33-1.62,3.38-1.62,6.65,0,3.06,1.62,3.06,1.62,6.64" fill="none" stroke="#1a1a1a" stroke-linecap="round" stroke-linejoin="round" stroke-width="2"/><rect x="11.45" y="23.48" width="2.73" height="3.7" fill="#fff"/></svg>