<?xml version="1.0" encoding="utf-8"?>
<!-- Generator: Adobe Illustrator 26.0.3, SVG Export Plug-In . SVG Version: 6.00 Build 0)  -->
<svg version="1.1" id="Layer_1" xmlns="http://www.w3.org/2000/svg" xmlns:xlink="http://www.w3.org/1999/xlink" x="0px" y="0px"
	 viewBox="0 0 50 50" style="enable-background:new 0 0 50 50;" xml:space="preserve">
<style type="text/css">
	.st0{fill:#FFFFFF;}
</style>
<g>
	<path class="st0" d="M45.1,31.3v-7.5C45.1,15.7,38.3,9,30.1,9H5.6V7.1H1.5v15h4.1v-2h24.6c2.2,0,3.9,1.7,3.9,3.8v7.5l-2.9,2.5v2.5
		h16.3v-2.5L45.1,31.3z"/>
	<path d="M5.6,7.1V9h24.6c8.2,0,14.9,6.6,14.9,14.8v7.5l2.4,2.5v2.5H31.2v-2.5l2.9-2.5v-7.5c0-2.1-1.8-3.8-3.9-3.8H5.6v2H1.5v-15
		H5.6 M7.1,5.6H5.6H1.5H0v1.5v15v1.5h1.5h4.1h1.5v-1.5v-0.5h23.1c1.3,0,2.4,1,2.4,2.3v6.8l-2.4,2.1l-0.5,0.4v0.7v2.5v1.5h1.5h16.3
		H49v-1.5v-2.5v-0.6l-0.4-0.4l-2-2.1v-6.9c0-9-7.4-16.3-16.4-16.3H7.1V7.1V5.6L7.1,5.6z"/>
</g>
<g>
	<path class="st0" d="M45.1,32.8h-11v-8.9c0-2.1-1.8-3.8-3.9-3.8H3.2V9h26.9c8.2,0,14.9,6.6,14.9,14.8V32.8z"/>
	<path d="M45.6,33.3h-12v-9.4c0-1.8-1.5-3.3-3.4-3.3H2.7v-12h27.4c8.5,0,15.4,6.9,15.4,15.3V33.3z M34.6,32.3h10v-8.4
		c0-7.9-6.5-14.3-14.4-14.3H3.7v10h26.4c2.5,0,4.4,1.9,4.4,4.3V32.3z"/>
</g>
<g>
	<polygon class="st0" points="45.1,31.3 34.1,31.3 31.2,33.9 31.2,36.4 47.5,36.4 47.5,33.9 	"/>
	<path d="M48,36.9H30.7v-3.2l3.2-2.8h11.4l2.7,2.8V36.9z M31.7,35.9H47v-1.8l-2.1-2.2H34.2l-2.6,2.2V35.9z"/>
</g>
<g>
	<path class="st0" d="M30.1,20H3.2"/>
	<rect x="3.2" y="19.5" width="26.9" height="1"/>
</g>
<rect x="31.3" y="16.8" transform="matrix(0.7071 -0.7071 0.7071 0.7071 -1.4632 31.1203)" width="11" height="1"/>
<rect x="29.6" y="9" width="1" height="11"/>
<rect x="34.1" y="23.3" width="11" height="1"/>
<rect x="16.9" y="9" width="1" height="11"/>
<rect x="7.2" y="10.9" width="7.3" height="0.5"/>
<rect x="19.1" y="11" width="4" height="0.7"/>
<rect x="42.8" y="25.8" width="1" height="3.2"/>
<rect x="12.6" width="1" height="5.9"/>
<rect x="7.7" y="17.3" width="2" height="0.5"/>
<rect x="35.6" y="25.8" width="1" height="2.2"/>
<g>
	<rect x="1.5" y="7.1" class="st0" width="4.1" height="15"/>
	<path d="M6.1,22.6H1v-16h5.1V22.6z M2,21.6h3.1v-14H2V21.6z"/>
</g>
<path d="M15.7,8.8h-5.1V5.4h5.1V8.8z M11.6,7.8h3.1V6.4h-3.1V7.8z"/>
<rect x="26.5" width="1" height="5.9"/>
<path d="M29.6,8.8h-5.1V5.4h5.1V8.8z M25.5,7.8h3.1V6.4h-3.1V7.8z"/>
<path d="M30.6,49c-2.1,0-3.9-1.5-3.9-3.3s1.7-3.3,3.9-3.3v1c-1.6,0-2.9,1-2.9,2.3S29,48,30.6,48c1,0,1.9-0.4,2.5-1
	c0.2-0.3,0.5-0.7,0.4-1.2l0-8.9h1v8.8c0.1,0.6-0.1,1.3-0.6,1.9C33.1,48.5,31.9,49,30.6,49z"/>
<path d="M45,45.7c-1,0-1.9-0.4-2.5-1c-0.4-0.4-0.6-1-0.5-1.5l0-6.2h1v6.3c0,0.3,0,0.6,0.2,0.8c0.4,0.4,1,0.7,1.7,0.7
	c1.1,0,1.9-0.7,1.9-1.5s-0.9-1.5-1.9-1.5v-1c1.6,0,2.9,1.1,2.9,2.5S46.6,45.7,45,45.7z"/>
<rect x="36.8" y="36.9" width="1" height="4.9"/>
<rect x="36.8" y="43.3" width="1" height="6.7"/>
</svg>
