<?xml version="1.0" encoding="utf-8"?>
<!-- Generator: Adobe Illustrator 26.0.3, SVG Export Plug-In . SVG Version: 6.00 Build 0)  -->
<svg version="1.1" id="Layer_1" xmlns="http://www.w3.org/2000/svg" xmlns:xlink="http://www.w3.org/1999/xlink" x="0px" y="0px"
	 viewBox="0 0 50 50" style="enable-background:new 0 0 50 50;" xml:space="preserve">
<style type="text/css">
	.st0{fill:#FFFFFF;stroke:#000000;stroke-width:2;stroke-linecap:round;stroke-linejoin:round;stroke-miterlimit:10;}
	.st1{fill:#FFFFFF;stroke:#000000;stroke-linecap:round;stroke-linejoin:round;stroke-miterlimit:10;}
	.st2{fill:none;stroke:#000000;stroke-linecap:round;stroke-linejoin:round;stroke-miterlimit:10;}
</style>
<polygon class="st0" points="48.3,22.4 48.3,13.5 37.4,13.5 37.4,10.6 12.5,10.6 12.5,13.5 2,13.5 2,22.4 12.5,22.4 12.5,27.9 
	2,27.9 2,36.8 12.5,36.8 12.5,39.8 37.4,39.8 37.4,36.8 48.3,36.8 48.3,27.9 37.4,27.9 37.4,22.4 "/>
<polyline class="st1" points="15.3,17.9 19.3,17.9 29.9,33.1 34.8,33.1 "/>
<polyline class="st1" points="22.5,29.8 20.2,33.1 15.3,33.1 "/>
<polyline class="st1" points="34.8,17.9 30.8,17.9 27.7,22.4 "/>
<line class="st2" x1="36.9" y1="10.6" x2="36.9" y2="39.4"/>
<line class="st2" x1="13" y1="10.6" x2="13" y2="39.8"/>
</svg>
