<svg id="b692d2d5-49a6-4444-b5a0-5c8573e4ecae" data-name="b431b8c3-455b-48ed-845e-b14d9d69b5fe" xmlns="http://www.w3.org/2000/svg" viewBox="0 0 40 40"><rect id="b431aa4b-90f5-4825-a71a-8e8c31f1e80f" data-name="aa8d5d12-6c31-4c05-b183-78c46f70da95" x="20" y="9.44" width="17.25" height="22.65" fill="#e6e6e6"/><rect id="fba6bb77-863d-4d86-901c-53b5a92039af" data-name="aa8d5d12-6c31-4c05-b183-78c46f70da95" x="2.75" y="7.45" width="17.25" height="11.49" fill="#b3b3b3"/><rect id="be8f01e5-b254-4e2a-9e5f-4d357b7d8ad3" data-name="aa8d5d12-6c31-4c05-b183-78c46f70da95" x="2.75" y="18.94" width="17.25" height="13.15" fill="#ccc"/><rect x="2.75" y="7.45" width="1.99" height="24.64"/><rect x="35.26" y="7.45" width="1.99" height="24.64"/><rect x="2.75" y="7.45" width="34.5" height="1.99"/><rect x="14.68" y="30.1" width="22.57" height="1.99"/><rect x="2.75" y="30.1" width="6.12" height="1.99"/><line x1="8.05" y1="31.09" x2="11.74" y2="25.02" fill="none" stroke="#000" stroke-miterlimit="10"/><line x1="20" y1="9.44" x2="20" y2="21.44" fill="none" stroke="#000" stroke-miterlimit="10"/><line x1="10.86" y1="18.94" x2="7.95" y2="18.94" fill="none" stroke="#000" stroke-miterlimit="10"/><line x1="15.47" y1="18.94" x2="12.57" y2="18.94" fill="none" stroke="#000" stroke-miterlimit="10"/><line x1="20" y1="18.94" x2="17.09" y2="18.94" fill="none" stroke="#000" stroke-miterlimit="10"/><line x1="20" y1="25.77" x2="20" y2="31.09" fill="none" stroke="#000" stroke-miterlimit="10"/><line x1="6.36" y1="18.94" x2="4.74" y2="18.94" fill="none" stroke="#000" stroke-miterlimit="10"/></svg>