<?xml version="1.0" encoding="utf-8"?>
<!-- Generator: Adobe Illustrator 26.0.3, SVG Export Plug-In . SVG Version: 6.00 Build 0)  -->
<svg version="1.1" id="Layer_1" xmlns="http://www.w3.org/2000/svg" xmlns:xlink="http://www.w3.org/1999/xlink" x="0px" y="0px"
	 viewBox="0 0 40 40" style="enable-background:new 0 0 40 40;" xml:space="preserve">
<style type="text/css">
	.st0{fill:#FFFFFF;}
</style>
<rect x="4.6" y="8.4" class="st0" width="31.9" height="25.2"/>
<g>
	<polygon points="36.4,33.6 17.3,33.6 17.3,31.1 33.8,31.1 33.8,11 7.2,11 7.2,31.1 10.7,31.1 10.7,33.6 4.6,33.6 4.6,8.4 36.4,8.4 
			"/>
</g>
<polygon points="21.6,19.8 14,19.8 14,18.9 20.8,18.9 20.8,9.7 21.6,9.7 "/>
<rect x="5.9" y="18.9" width="2.4" height="0.9"/>
<rect x="20.8" y="26" width="0.9" height="6.4"/>
<rect x="20.8" y="19.4" width="0.9" height="1.9"/>
<rect x="7.5" y="17.3" transform="matrix(0.7488 -0.6628 0.6628 0.7488 -9.0148 11.2487)" width="5.6" height="0.4"/>
<polygon points="21.4,26.2 21.1,25.9 24.8,22.7 25,23 "/>
<polygon points="17.5,31 17.2,31.3 13.3,28.4 13.6,28 "/>
</svg>
