<svg id="bec12a6a-4abf-496a-81ec-7f6ff0ed134d" data-name="adabf8a8-4cdf-4ed1-aeec-62e64e36eec2" xmlns="http://www.w3.org/2000/svg" viewBox="0 0 40 40"><path d="M20.24,37.2a1.24,1.24,0,0,1-.62-.13L5,30.91a1.37,1.37,0,0,1-1-1.46v-17a1.78,1.78,0,0,1,1-1.48l14.65-6.3a1.16,1.16,0,0,1,1.24,0l14.68,6.3a1.59,1.59,0,0,1,1,1.48V29.53a1.6,1.6,0,0,1-1,1.49L20.86,37.2C20.61,37.07,20.37,37.2,20.24,37.2Z" fill="#1a1a1a"/><polygon points="20.24 35.27 5.77 29.25 5.77 12.6 20.24 18.63 20.24 35.27" fill="#ccc"/><polygon points="20.3 35.21 34.79 29.19 34.79 12.54 20.3 18.57 20.3 35.21" fill="gray"/><polygon points="20.24 18.63 34.73 12.6 20.24 6.44 5.77 12.6 20.24 18.63" fill="#fff"/><polygon points="17.18 31.51 8.25 27.79 8.25 17.52 17.18 21.24 17.18 31.51" fill="#fff" stroke="#000" stroke-linejoin="round"/><line x1="13" y1="21.71" x2="10.05" y2="24.51" fill="none" stroke="#000" stroke-linejoin="round" stroke-width="0.5"/><line x1="15.19" y1="23.54" x2="11.28" y2="27.44" fill="none" stroke="#000" stroke-linejoin="round" stroke-width="0.5"/></svg>