<?xml version="1.0" encoding="utf-8"?>
<!-- Generator: Adobe Illustrator 26.0.3, SVG Export Plug-In . SVG Version: 6.00 Build 0)  -->
<svg version="1.1" id="Layer_1" xmlns="http://www.w3.org/2000/svg" xmlns:xlink="http://www.w3.org/1999/xlink" x="0px" y="0px"
	 viewBox="0 0 50 50" style="enable-background:new 0 0 50 50;" xml:space="preserve">
<style type="text/css">
	.st0{fill:#FFFFFF;stroke:#000000;stroke-linecap:round;stroke-linejoin:round;stroke-miterlimit:10;}
	.st1{fill:#FFFFFF;}
</style>
<circle class="st0" cx="25" cy="25" r="22.5"/>
<path d="M20.1,30.4C20.1,30.4,20,30.4,20.1,30.4c-0.2,0-0.3-0.1-0.4-0.2l-11.5-17c-0.1-0.2-0.1-0.5,0.1-0.6l2.1-2.1c0,0,0,0,0,0
	s0,0,0,0l1.7-1.7c0.2-0.2,0.4-0.2,0.6-0.1l17.4,11c0.1,0.1,0.2,0.2,0.2,0.4c0,0.2,0,0.3-0.1,0.4l-1.6,1.6c-0.2,0.2-0.5,0.2-0.7,0
	c-0.8-0.8-1.8-1.2-2.9-1.2c-1.1,0-2.1,0.4-2.9,1.2l0,0l0,0c-0.8,0.8-1.2,1.8-1.2,2.9c0,1.1,0.4,2.1,1.2,2.9c0.1,0.1,0.1,0.2,0.1,0.4
	s-0.1,0.3-0.1,0.4l-1.6,1.6C20.3,30.4,20.2,30.4,20.1,30.4z"/>
<path d="M9.3,13l10.9,16.1l0.9-0.9c-0.8-0.9-1.2-2.1-1.2-3.3s0.4-2.3,1.2-3.3L10.8,11.5L9.3,13z"/>
<path class="st1" d="M11.5,10.8L21.7,21c1.8-1.5,4.7-1.5,6.5,0l0.9-0.9L12.6,9.7L11.5,10.8z"/>
<path d="M30,19.6C30,19.6,30,19.6,30,19.6c0.2,0,0.3,0.1,0.4,0.2l11.5,17c0.1,0.2,0.1,0.5-0.1,0.6l-2.1,2.1c0,0,0,0,0,0s0,0,0,0
	l-1.7,1.7c-0.2,0.2-0.4,0.2-0.6,0.1l-17.4-11c-0.1-0.1-0.2-0.2-0.2-0.4c0-0.2,0-0.3,0.1-0.4l1.6-1.6c0.2-0.2,0.5-0.2,0.7,0
	c0.8,0.8,1.8,1.2,2.9,1.2c1.1,0,2.1-0.4,2.9-1.2l0,0l0,0c0.8-0.8,1.2-1.8,1.2-2.9c0-1.1-0.4-2.1-1.2-2.9c-0.1-0.1-0.1-0.2-0.1-0.4
	s0.1-0.3,0.1-0.4l1.6-1.6C29.7,19.7,29.8,19.6,30,19.6z"/>
<path class="st1" d="M40.8,37L29.9,20.9L29,21.8c0.8,0.9,1.2,2.1,1.2,3.3s-0.4,2.3-1.2,3.3l10.3,10.3L40.8,37z"/>
<path d="M38.5,39.3L28.2,29c-1.8,1.5-4.7,1.5-6.5,0l-0.9,0.9l16.6,10.5L38.5,39.3z"/>
<circle class="st0" cx="25" cy="25" r="4.6"/>
</svg>
