<?xml version="1.0" encoding="utf-8"?>
<!-- Generator: Adobe Illustrator 26.0.3, SVG Export Plug-In . SVG Version: 6.00 Build 0)  -->
<svg version="1.1" id="Layer_1" xmlns="http://www.w3.org/2000/svg" xmlns:xlink="http://www.w3.org/1999/xlink" x="0px" y="0px"
	 viewBox="0 0 50 50" style="enable-background:new 0 0 50 50;" xml:space="preserve">
<style type="text/css">
	.st0{fill:#FFFFFF;}
</style>
<g>
	<path class="st0" d="M36.5,30.5C36.5,23.9,26.3,8,25,8c-0.9,0-11.5,15.9-11.5,22.5S18.6,41.2,25,41.2S36.5,37.2,36.5,30.5z"/>
	<path d="M25,41.7c-7.1,0-12-4.6-12-11.2c0-6.6,10.4-23,12-23c2,0,12,16.7,12,23C37,37.1,32.1,41.7,25,41.7z M25,8.6
		c-1.7,1.5-11,15.9-11,21.9c0,6,4.5,10.2,11,10.2c6.6,0,11-4.1,11-10.2C36,24.3,26.8,9.9,25,8.6z M25.2,8.5L25.2,8.5z"/>
</g>
<g>
	<path class="st0" d="M22.3,18.6l1.7-3.5"/>
	<path d="M22.3,19.6c-0.1,0-0.3,0-0.4-0.1c-0.5-0.2-0.7-0.8-0.5-1.3l1.7-3.5c0.2-0.5,0.8-0.7,1.3-0.5c0.5,0.2,0.7,0.8,0.5,1.3
		L23.2,19C23,19.4,22.6,19.6,22.3,19.6z"/>
</g>
<g>
	<path class="st0" d="M27.8,36.4c-0.7,0.2-1.3,0.6-2,0.6c-4.3,0-7.8-2.9-7.8-7.8c0-1.3,0.5-3.1,1.3-5.1l0.3-0.7"/>
	<path d="M25.8,38c-5.2,0-8.8-3.6-8.8-8.8c0-1.4,0-2.3,1-4.6l0.7-1.6c0.2-0.5,0.8-0.7,1.3-0.5c0.5,0.2,0.7,0.8,0.5,1.3l-0.3,0.7
		c-0.8,2-1.2,3.6-1.2,4.7c0,4.7,3.4,6.8,6.8,6.8c0.7,0,1.2-0.4,1.7-0.5c0.5-0.1,1.1,0.2,1.2,0.7c0.2,0.5-0.2,1.1-0.7,1.2
		C27.2,37.6,26.5,38,25.8,38z"/>
</g>
</svg>
