<?xml version="1.0" encoding="utf-8"?>
<!-- Generator: Adobe Illustrator 26.0.3, SVG Export Plug-In . SVG Version: 6.00 Build 0)  -->
<svg version="1.1" id="Layer_1" xmlns="http://www.w3.org/2000/svg" xmlns:xlink="http://www.w3.org/1999/xlink" x="0px" y="0px"
	 viewBox="0 0 50 50" style="enable-background:new 0 0 50 50;" xml:space="preserve">
<style type="text/css">
	.st0{fill:#FFFFFF;stroke:#000000;stroke-width:2;stroke-linecap:round;stroke-linejoin:round;stroke-miterlimit:10;}
	.st1{fill:#FFFFFF;stroke:#000000;stroke-linecap:round;stroke-linejoin:round;stroke-miterlimit:10;}
</style>
<polygon class="st0" points="28.3,21.3 28.3,17.6 25,17.6 21.6,17.6 21.6,21.3 2,21.3 2,34 21.6,34 21.6,37.7 25,37.7 28.3,37.7 
	28.3,34 47.9,34 47.9,21.3 "/>
<rect x="2" y="21.3" class="st1" width="19.5" height="12.7"/>
<rect x="21.6" y="17.6" class="st1" width="3.4" height="20.1"/>
<rect x="28.3" y="21.3" transform="matrix(-1 -1.224647e-16 1.224647e-16 -1 76.2328 55.2728)" class="st1" width="19.5" height="12.7"/>
<rect x="25" y="17.6" transform="matrix(-1 -1.224647e-16 1.224647e-16 -1 53.3162 55.2728)" class="st1" width="3.4" height="20.1"/>
</svg>
