<?xml version="1.0" encoding="utf-8"?>
<!-- Generator: Adobe Illustrator 26.0.3, SVG Export Plug-In . SVG Version: 6.00 Build 0)  -->
<svg version="1.1" id="Layer_1" xmlns="http://www.w3.org/2000/svg" xmlns:xlink="http://www.w3.org/1999/xlink" x="0px" y="0px"
	 viewBox="0 0 30 30" style="enable-background:new 0 0 30 30;" xml:space="preserve">
<style type="text/css">
	.st0{fill:#FFFFFF;}
</style>
<g>
	<g>
		<path class="st0" d="M8.3,28.3c-0.3,0-0.6-0.1-0.7-0.3l-5.6-5.6c-0.3-0.3-0.3-0.5-0.3-0.7S1.9,21,2,20.9L20.8,2.1
			c0.3-0.3,0.5-0.3,0.7-0.3s0.6,0.1,0.7,0.3l5.6,5.6c0.4,0.4,0.4,1.1,0,1.5L9.1,28C8.9,28.2,8.7,28.3,8.3,28.3z"/>
		<path d="M8.3,29.4c-0.5,0-1.1-0.2-1.5-0.6l-5.6-5.6c-0.6-0.6-0.6-1.1-0.6-1.5c0-0.3,0-1.1,0.5-1.5L20,1.3c0.6-0.6,1.1-0.6,1.5-0.6
			C22,0.8,22.6,1,23,1.3l5.6,5.6c0.8,0.8,0.8,2.2,0,3L9.9,28.7C9.4,29.4,8.6,29.4,8.3,29.4z M8.3,27.2L8.3,27.2
			C8.4,27.3,8.4,27.2,8.3,27.2L8.3,27.2L27,8.4l-5.5-5.5c0,0-0.1,0-0.1,0L2.9,21.5c0,0.1,0,0.1,0,0.2c0,0,0,0,0,0L8.3,27.2z"/>
	</g>
	<g>
		<path d="M21.6,2.1c0.3,0,0.4,0.1,0.6,0.3l5.6,5.6C27.9,8.1,28,8.2,28,8.5s-0.1,0.4-0.3,0.6L8.9,27.8C8.7,28,8.6,28,8.3,28
			C8.1,28,8,28,7.8,27.8l-5.6-5.6c-0.3-0.3-0.3-0.8,0-1.1L21,2.3C21.2,2.1,21.4,2.1,21.6,2.1 M21.6,1.5c-0.3,0-0.7,0.1-1,0.4
			L1.8,20.7c-0.5,0.5-0.5,1.4,0,1.9l5.6,5.6c0.3,0.3,0.7,0.4,1,0.4c0.3,0,0.7-0.1,1-0.4L28.1,9.3c0.5-0.5,0.5-1.4,0-1.9l-5.6-5.6
			C22.2,1.6,21.9,1.5,21.6,1.5L21.6,1.5z"/>
		<path d="M8.3,29.6c-0.6,0-1.3-0.3-1.7-0.7l-5.6-5.6c-0.9-0.9-0.9-2.5,0-3.4L19.8,1.1c0.8-0.8,2.3-1,3.4-0.1l0.1,0.1l5.6,5.6
			c0.9,0.9,0.9,2.5,0,3.4L10.1,28.9C9.6,29.3,9,29.6,8.3,29.6z M3.1,21.7l5.2,5.2L26.8,8.5l-5.2-5.2L3.1,21.7z M21.6,3.1
			C21.6,3.1,21.6,3.1,21.6,3.1l0-0.6c0,0,0,0,0,0V3.1z M21.8,3L21.8,3C21.8,3,21.8,3,21.8,3z"/>
	</g>
</g>
<g>
	<rect x="6.9" y="17" transform="matrix(0.7141 -0.7 0.7 0.7141 -11.3958 10.7234)" width="1.1" height="4.7"/>
</g>
<g>
	<rect x="9.3" y="14.6" transform="matrix(0.7141 -0.7001 0.7001 0.7141 -9.0754 11.7)" width="1.1" height="4.7"/>
</g>
<g>
	<rect x="11.6" y="12.3" transform="matrix(0.7071 -0.7071 0.7071 0.7071 -6.749 12.8519)" width="1.1" height="4.6"/>
</g>
<g>
	<rect x="14" y="9.9" transform="matrix(0.7071 -0.7071 0.7071 0.7071 -4.3946 13.8271)" width="1.1" height="4.6"/>
</g>
<g>
	<rect x="16.3" y="7.6" transform="matrix(0.7072 -0.7071 0.7071 0.7072 -2.0411 14.8009)" width="1.1" height="4.6"/>
</g>
<g>
	<rect x="18.7" y="5.2" transform="matrix(0.7071 -0.7071 0.7071 0.7071 0.3137 15.7776)" width="1.1" height="4.6"/>
</g>
</svg>
