<?xml version="1.0" encoding="utf-8"?>
<!-- Generator: Adobe Illustrator 26.0.3, SVG Export Plug-In . SVG Version: 6.00 Build 0)  -->
<svg version="1.1" id="Layer_1" xmlns="http://www.w3.org/2000/svg" xmlns:xlink="http://www.w3.org/1999/xlink" x="0px" y="0px"
	 viewBox="0 0 50 50" style="enable-background:new 0 0 50 50;" xml:space="preserve">
<style type="text/css">
	.st0{fill:#FFFFFF;stroke:#000000;stroke-width:2;stroke-miterlimit:10;}
	.st1{stroke:#000000;stroke-width:2;stroke-miterlimit:10;}
	.st2{fill:none;stroke:#000000;stroke-width:2;stroke-miterlimit:10;}
</style>
<g>
	<path class="st0" d="M14.9,45.3c-0.4,0-0.9-0.2-1.1-0.4l-8.5-8.6c-0.4-0.4-0.4-0.7-0.4-1.1S5,34.2,5.2,34L33.9,5.2
		c0.4-0.4,0.7-0.4,1.1-0.4s0.9,0.2,1.1,0.4l8.5,8.5c0.6,0.6,0.6,1.7,0,2.3L16.1,44.8C15.8,45.2,15.4,45.3,14.9,45.3z"/>
	<path class="st1" d="M35.1,5.2c0.4,0,0.6,0.1,0.9,0.4l8.5,8.5c0.3,0.3,0.4,0.5,0.4,0.9c0,0.4-0.1,0.6-0.4,0.9L15.8,44.5
		c-0.3,0.3-0.5,0.4-0.9,0.4s-0.6-0.1-0.9-0.4L5.5,36c-0.4-0.4-0.4-1.2,0-1.7L34.3,5.5C34.5,5.3,34.8,5.2,35.1,5.2 M35.1,4.3
		c-0.5,0-1.1,0.2-1.5,0.6L4.9,33.6c-0.8,0.8-0.8,2.1,0,2.9l8.5,8.5c0.4,0.4,1,0.6,1.5,0.6s1.1-0.2,1.5-0.6l28.7-28.7
		c0.8-0.8,0.8-2.1,0-2.9l-8.5-8.5C36.1,4.5,35.6,4.3,35.1,4.3L35.1,4.3z"/>
</g>
<g>
	<line class="st2" x1="7.3" y1="32.6" x2="12.5" y2="37.6"/>
</g>
<g>
	<line class="st2" x1="11" y1="29" x2="16" y2="34.1"/>
</g>
<g>
	<line class="st2" x1="14.6" y1="25.4" x2="19.6" y2="30.5"/>
</g>
<g>
	<line class="st2" x1="18.2" y1="21.8" x2="23.2" y2="26.8"/>
</g>
<g>
	<line class="st2" x1="21.8" y1="18.2" x2="26.8" y2="23.2"/>
</g>
<g>
	<line class="st2" x1="25.4" y1="14.6" x2="30.4" y2="19.6"/>
</g>
<g>
	<line class="st2" x1="29" y1="11" x2="34" y2="16"/>
</g>
<g>
	<line class="st2" x1="32.6" y1="7.4" x2="37.6" y2="12.4"/>
</g>
</svg>
