<svg id="adabf8a8-4cdf-4ed1-aeec-62e64e36eec2" data-name="Layer 1" xmlns="http://www.w3.org/2000/svg" viewBox="0 0 40 40"><line x1="5.89" y1="24.9" x2="25.6" y2="32.89" fill="none" stroke="gray" stroke-linecap="round" stroke-linejoin="round" stroke-width="0.5"/><line x1="31.42" y1="24.23" x2="12.62" y2="32.22" fill="none" stroke="gray" stroke-linecap="round" stroke-linejoin="round" stroke-width="0.5"/><polygon points="19.78 19.12 0.48 27.16 19.78 35.37 39.08 27.16 19.78 19.12" fill="none" stroke="gray" stroke-linecap="round" stroke-linejoin="round" stroke-width="0.5"/><path d="M18.1,30.57a.89.89,0,0,1-.45-.09L7,26a1,1,0,0,1-.71-1.06V12.56A1.3,1.3,0,0,1,7,11.48L17.65,6.9a.86.86,0,0,1,.9,0l10.67,4.58a1.17,1.17,0,0,1,.71,1.08V25a1.17,1.17,0,0,1-.71,1.08L18.55,30.57C18.37,30.48,18.19,30.57,18.1,30.57Z" fill="#1a1a1a"/><polygon points="18.1 28.45 8.3 24.37 8.3 13.1 18.1 17.18 18.1 28.45" fill="#ccc"/><polygon points="18.14 28.41 27.95 24.33 27.95 13.06 18.14 17.14 18.14 28.41" fill="gray"/><polygon points="18.1 17.18 27.91 13.1 18.1 8.93 8.3 13.1 18.1 17.18" fill="#fff"/></svg>