<?xml version="1.0" encoding="utf-8"?>
<!-- Generator: Adobe Illustrator 26.0.3, SVG Export Plug-In . SVG Version: 6.00 Build 0)  -->
<svg version="1.1" id="Layer_1" xmlns="http://www.w3.org/2000/svg" xmlns:xlink="http://www.w3.org/1999/xlink" x="0px" y="0px"
	 viewBox="0 0 40 40" style="enable-background:new 0 0 40 40;" xml:space="preserve">
<style type="text/css">
	.st0{fill:#FFFFFF;}
</style>
<g>
	<polygon class="st0" points="20.2,9.4 8.2,14.5 8.2,28.3 20.2,33.3 32.2,28.3 32.2,14.5 	"/>
	<path d="M20.2,34.6c-0.2,0-0.3,0-0.5-0.1l-11.9-5C7.2,29.3,7,28.8,7,28.3V14.5c0-0.5,0.3-0.9,0.8-1.2l11.9-5.1c0.3-0.2,0.7-0.2,1,0
		l11.9,5.1c0.5,0.2,0.8,0.7,0.8,1.2v13.9c0,0.5-0.3,1-0.8,1.2l-11.9,5C20.5,34.5,20.3,34.6,20.2,34.6z M9.5,27.5l10.6,4.4l10.6-4.4
		V15.3l-10.6-4.6L9.5,15.3V27.5z"/>
</g>
<g>
	<path d="M20.2,3.4c-0.1,0-0.2-0.1-0.2-0.2V2.4c0-0.1,0-0.2,0.1-0.2c0.1,0,0.2-0.1,0.2,0L21,2.5c0.2-0.1,0.2,0.1,0.2,0.2
		c-0.1,0.1-0.2,0.2-0.3,0.1l-0.5-0.2v0.5C20.4,3.3,20.3,3.4,20.2,3.4z"/>
	<path d="M36.1,9.1C36,9.1,36,9.1,36.1,9.1l-1.6-0.6c-0.1-0.1-0.2-0.2-0.1-0.3c0.1-0.1,0.2-0.2,0.3-0.1l1.5,0.6
		C36.3,8.9,36.4,9,36.3,9C36.3,9.1,36.2,9.1,36.1,9.1z M33.1,7.9C33,7.9,33,7.9,33.1,7.9l-1.6-0.7c-0.1-0.1-0.2-0.2-0.1-0.3
		c0-0.1,0.2-0.2,0.3-0.1l1.5,0.6c0.1,0.1,0.2,0.2,0.1,0.3C33.3,7.9,33.2,7.9,33.1,7.9z M30,6.6C30,6.6,30,6.6,30,6.6L28.4,6
		c-0.1-0.1-0.2-0.2-0.1-0.3c0.1-0.1,0.2-0.2,0.3-0.1l1.5,0.6c0.1,0.1,0.2,0.2,0.1,0.3C30.2,6.6,30.1,6.6,30,6.6z M27,5.3
		C27,5.3,26.9,5.3,27,5.3l-1.6-0.6c-0.1-0.1-0.2-0.2-0.1-0.3c0-0.2,0.2-0.2,0.3-0.2L27.1,5c0.1,0.1,0.2,0.2,0.1,0.3
		C27.2,5.3,27.1,5.3,27,5.3z M24,4.1L24,4.1l-1.6-0.6c-0.1-0.1-0.2-0.2-0.1-0.3c0.1-0.1,0.2-0.2,0.3-0.1L24,3.7
		c0.1,0.1,0.2,0.2,0.1,0.3C24.1,4.1,24,4.1,24,4.1z"/>
	<path d="M38.4,11c-0.1,0-0.2-0.1-0.2-0.2v-0.7l-0.7-0.3c-0.1-0.1-0.2-0.2-0.1-0.3c0.1-0.1,0.2-0.2,0.3-0.1l0.8,0.3
		c0.1,0,0.2,0.1,0.2,0.2v0.8C38.6,10.8,38.5,11,38.4,11z"/>
	<path d="M38.4,28.6c-0.1,0-0.2-0.1-0.2-0.2v-1.8c0-0.1,0.1-0.2,0.2-0.2c0.1,0,0.2,0.1,0.2,0.2v1.8C38.6,28.5,38.5,28.6,38.4,28.6z
		 M38.4,25c-0.1,0-0.2-0.1-0.2-0.2v-1.8c0-0.1,0.1-0.2,0.2-0.2c0.1,0,0.2,0.1,0.2,0.2v1.8C38.6,24.9,38.5,25,38.4,25z M38.4,21.6
		c-0.1,0-0.2-0.1-0.2-0.2v-1.9c0-0.1,0.1-0.2,0.2-0.2c0.1,0,0.2,0.1,0.2,0.2v1.8C38.6,21.4,38.5,21.6,38.4,21.6z M38.4,18
		c-0.1,0-0.2-0.1-0.2-0.2v-1.8c0-0.1,0.1-0.2,0.2-0.2c0.1,0,0.2,0.1,0.2,0.2v1.8C38.6,17.9,38.5,18,38.4,18z M38.4,14.5
		c-0.1,0-0.2-0.1-0.2-0.2v-1.8c0-0.1,0.1-0.2,0.2-0.2c0.1,0,0.2,0.1,0.2,0.2v1.8C38.6,14.4,38.5,14.5,38.4,14.5z"/>
	<path d="M38.4,31.2C38.3,31.2,38.3,31.2,38.4,31.2l-0.8-0.3c-0.1-0.1-0.2-0.2-0.1-0.3c0.1-0.1,0.2-0.2,0.3-0.1l0.5,0.2v-0.5
		c0-0.1,0.1-0.2,0.2-0.2c0.1,0,0.2,0.1,0.2,0.2V31C38.6,31.1,38.6,31.2,38.4,31.2C38.5,31.2,38.4,31.2,38.4,31.2z"/>
	<path d="M36.1,30.2C36,30.2,36,30.2,36.1,30.2l-1.6-0.7c-0.1-0.1-0.2-0.2-0.1-0.3s0.2-0.2,0.3-0.1l1.5,0.6c0.1,0.1,0.2,0.2,0.1,0.3
		C36.3,30.2,36.2,30.2,36.1,30.2z M33.1,28.9C33,28.9,33,28.9,33.1,28.9l-1.6-0.7c-0.1-0.1-0.2-0.2-0.1-0.3c0.1-0.1,0.2-0.2,0.3-0.1
		l1.5,0.6c0.1,0.1,0.2,0.2,0.1,0.3C33.3,28.9,33.2,28.9,33.1,28.9z M30,27.7C30,27.7,30,27.6,30,27.7L28.4,27
		c-0.1-0.1-0.2-0.2-0.1-0.3c0.1-0.1,0.2-0.2,0.3-0.1l1.5,0.6c0.1,0.1,0.2,0.2,0.1,0.3C30.2,27.6,30.1,27.7,30,27.7z M27,26.5
		C27,26.5,26.9,26.5,27,26.5l-1.6-0.7c-0.1-0.1-0.2-0.2-0.1-0.3c0.1-0.1,0.2-0.2,0.3-0.1l1.5,0.6c0.1,0.1,0.2,0.2,0.1,0.3
		C27.2,26.4,27.1,26.5,27,26.5z M24,25.2L24,25.2l-1.6-0.7c-0.1-0.1-0.2-0.2-0.1-0.3s0.2-0.2,0.3-0.1l1.5,0.6
		c0.1,0.1,0.2,0.2,0.1,0.3C24.1,25.1,24,25.2,24,25.2z"/>
	<path d="M20.9,23.9L20.9,23.9l-0.8-0.3c-0.1,0-0.2-0.1-0.2-0.2v-0.8c0-0.1,0.1-0.2,0.2-0.2c0.1,0,0.2,0.1,0.2,0.2v0.7l0.7,0.3
		c0.3,0,0.3,0.2,0.3,0.3C21.1,23.8,21,23.9,20.9,23.9z"/>
	<path d="M20.2,21c-0.1,0-0.2-0.1-0.2-0.2V19c0-0.1,0.1-0.2,0.2-0.2c0.1,0,0.2,0.1,0.2,0.2v1.8C20.4,20.9,20.3,21,20.2,21z
		 M20.2,17.4c-0.1,0-0.2-0.1-0.2-0.2v-1.8c0-0.1,0.1-0.2,0.2-0.2c0.1,0,0.2,0.1,0.2,0.2v1.8C20.4,17.3,20.3,17.4,20.2,17.4z
		 M20.2,13.9c-0.1,0-0.2-0.1-0.2-0.2v-1.9c0-0.1,0.1-0.2,0.2-0.2c0.1,0,0.2,0.1,0.2,0.2v1.8C20.4,13.9,20.3,13.9,20.2,13.9z
		 M20.2,10.4c-0.1,0-0.2-0.1-0.2-0.2V8.5c0-0.1,0.1-0.2,0.2-0.2c0.1,0,0.2,0.1,0.2,0.2v1.8C20.4,10.3,20.3,10.4,20.2,10.4z
		 M20.2,6.8c-0.1,0-0.2-0.1-0.2-0.2V4.9c0-0.1,0.1-0.2,0.2-0.2c0.1,0,0.2,0.1,0.2,0.2v1.8C20.4,6.8,20.3,6.8,20.2,6.8z"/>
</g>
<path d="M2,31.2L2,31.2c-0.3-0.1-0.3-0.2-0.3-0.3v-0.3c0-0.1,0.1-0.2,0.3-0.2c0.1,0,0.2,0.1,0.2,0.2l1.1-0.4c0.1-0.1,0.3,0,0.3,0.1
	c0.1,0.1,0,0.3-0.1,0.3L2,31.2L2,31.2z M4.9,29.9c-0.1,0-0.2-0.1-0.2-0.2c-0.1-0.1,0-0.3,0.1-0.3l1.5-0.7c0.1-0.1,0.3,0,0.3,0.1
	c0.1,0.1,0,0.3-0.1,0.3L4.9,29.9C4.9,29.9,4.9,29.9,4.9,29.9z M2,29.2c-0.1,0-0.2-0.1-0.2-0.2v-1.7c-0.1-0.2,0-0.3,0.2-0.3
	s0.2,0.1,0.2,0.2V29C2.2,29.2,2.1,29.2,2,29.2z M8,28.7c-0.1,0-0.2-0.1-0.2-0.2c-0.1-0.1,0-0.3,0.1-0.3l1.5-0.7
	c0.1-0.1,0.3,0,0.3,0.1c0.1,0.1,0,0.3-0.1,0.3L8,28.7L8,28.7z M11.1,27.4c-0.1,0-0.2-0.1-0.2-0.2c-0.1-0.1,0-0.3,0.1-0.3l1.5-0.7
	c0.1-0.1,0.3,0,0.3,0.1c0.1,0.1,0,0.3-0.1,0.3L11.1,27.4L11.1,27.4z M14.2,26c-0.1,0-0.2-0.1-0.2-0.2c-0.1-0.1,0-0.3,0.1-0.3
	l1.5-0.7c0.1-0.1,0.3,0,0.3,0.1c0.1,0.1,0,0.3-0.1,0.3L14.2,26L14.2,26z M2,25.9c-0.1,0-0.2-0.1-0.2-0.2V24c-0.1-0.2,0-0.3,0.2-0.3
	s0.2,0.1,0.2,0.2v1.7C2.2,25.8,2.1,25.9,2,25.9z M17.4,24.8c-0.1,0-0.2-0.1-0.2-0.2c-0.1-0.1,0-0.3,0.1-0.3l1.5-0.7
	c0.1-0.1,0.3,0,0.3,0.1c0.1,0.1,0,0.3-0.1,0.3L17.4,24.8L17.4,24.8z M20.2,23.2c-0.1,0-0.2-0.1-0.2-0.2v-1.7c0-0.1,0.1-0.2,0.2-0.2
	c0.1,0,0.2,0.1,0.2,0.2v1.7C20.4,23.2,20.3,23.2,20.2,23.2z M2,22.5c-0.1,0-0.2-0.1-0.2-0.2v-1.7c-0.1-0.2,0-0.3,0.2-0.3
	s0.2,0.1,0.2,0.2v1.7C2.2,22.4,2.1,22.5,2,22.5z M20.2,19.9c-0.1,0-0.2-0.1-0.2-0.2V18c0-0.1,0.1-0.2,0.2-0.2c0.1,0,0.2,0.1,0.2,0.2
	v1.7C20.4,19.8,20.3,19.9,20.2,19.9z M2,19.1c-0.1,0-0.2-0.1-0.2-0.2v-1.7C1.7,17.1,1.8,17,2,17s0.2,0.1,0.2,0.2v1.7
	C2.2,19,2.1,19.1,2,19.1z M20.2,16.5c-0.1,0-0.2-0.1-0.2-0.2v-1.7c0-0.1,0.1-0.2,0.2-0.2c0.1,0,0.2,0.1,0.2,0.2v1.7
	C20.4,16.4,20.3,16.5,20.2,16.5z M2,15.7c-0.1,0-0.2-0.1-0.2-0.2v-1.7c-0.1-0.2,0-0.3,0.2-0.3s0.2,0.1,0.2,0.2v1.7
	C2.2,15.6,2.1,15.7,2,15.7z M20.2,13.1c-0.1,0-0.2-0.1-0.2-0.2v-1.7c0-0.1,0.1-0.2,0.2-0.2c0.1,0,0.2,0.1,0.2,0.2v1.7
	C20.4,13,20.3,13.1,20.2,13.1z M2,12.3c-0.1,0-0.2-0.1-0.2-0.2v-1.7c-0.1-0.2,0-0.3,0.2-0.3s0.2,0.1,0.2,0.2v1.7
	C2.2,12.3,2.1,12.3,2,12.3z M20.2,9.7c-0.1,0-0.2-0.1-0.2-0.2V7.9c0-0.1,0.1-0.2,0.2-0.2c0.1,0,0.2,0.1,0.2,0.2v1.7
	C20.4,9.6,20.3,9.7,20.2,9.7z M3,9.6c-0.1,0-0.2-0.1-0.2-0.2c-0.1-0.1,0-0.3,0.1-0.3l1.5-0.7c0.1-0.1,0.3,0,0.3,0.1
	c0.1,0.1,0,0.3-0.1,0.3L3,9.6C3.1,9.6,3,9.6,3,9.6z M6.1,8.4C6,8.4,6,8.3,6,8.2C5.9,8.1,6,7.9,6,7.9l1.6-0.7c0.1-0.1,0.3,0,0.3,0.1
	c0.1,0.1,0,0.3-0.1,0.3L6.1,8.4C6.2,8.4,6.1,8.4,6.1,8.4z M9.3,7.1C9.2,7.1,9.1,7,9.1,6.9C9,6.8,9.1,6.7,9.2,6.7L10.7,6
	c0.1,0,0.3,0,0.3,0.1c0.1,0.1,0,0.3-0.1,0.3L9.3,7.1C9.3,7,9.3,7.1,9.3,7.1z M20.2,6.3c-0.1,0-0.2-0.1-0.2-0.2V4.5
	c0-0.1,0.1-0.2,0.2-0.2c0.1,0,0.2,0.1,0.2,0.2v1.7C20.4,6.3,20.3,6.3,20.2,6.3z M12.4,5.7c-0.1,0-0.2-0.1-0.2-0.2
	c-0.1-0.1,0-0.3,0.1-0.3l1.5-0.7c0.1-0.1,0.3,0,0.3,0.1S14.1,5,14,5L12.4,5.7C12.5,5.7,12.4,5.7,12.4,5.7z M15.5,4.5
	c-0.1,0-0.2-0.1-0.2-0.2c-0.1-0.1,0-0.3,0.1-0.3l1.5-0.7c0.1-0.1,0.3,0,0.3,0.1c0.1,0.1,0,0.3-0.1,0.3L15.5,4.5L15.5,4.5z M18.6,3.1
	c-0.1,0-0.2-0.1-0.2-0.2c-0.1-0.1,0-0.3,0.1-0.3L20.1,2c0.1,0,0.2,0,0.2,0c0.1,0,0.1,0.1,0.1,0.2v0.5c0,0.1-0.1,0.2-0.2,0.2
	c-0.1,0-0.2-0.1-0.2-0.2V2.6L18.6,3.1L18.6,3.1z"/>
<g>
	<path d="M20.9,23.9L20.9,23.9l-0.8-0.3l-0.7,0.3c-0.1,0.1-0.3,0-0.3-0.1c-0.1-0.1,0-0.3,0.1-0.3l0.8-0.3c0.1,0,0.1,0,0.2,0l0.8,0.3
		c0.2-0.1,0.2,0.1,0.2,0.2C21.1,23.8,21,23.9,20.9,23.9z"/>
	<path d="M4.3,30.2c-0.1,0-0.2-0.1-0.2-0.2c-0.1-0.1,0-0.3,0.1-0.3l1.5-0.6c0.1-0.1,0.3,0,0.3,0.1c0.1,0.1,0,0.3-0.1,0.3L4.3,30.2
		L4.3,30.2z M7.3,28.9c-0.1,0-0.2-0.1-0.2-0.2c-0.1-0.1,0-0.3,0.1-0.3l1.5-0.6C8.8,27.8,9,27.9,9,28c0.1,0.1,0,0.3-0.1,0.3L7.3,28.9
		L7.3,28.9z M10.3,27.7c-0.1,0-0.2-0.1-0.2-0.2c-0.1-0.1,0-0.3,0.1-0.3l1.5-0.6c0.1-0.1,0.3,0,0.3,0.1c0.1,0.1,0,0.3-0.1,0.3
		L10.3,27.7C10.3,27.6,10.3,27.7,10.3,27.7z M13.3,26.5c-0.1,0-0.2-0.1-0.2-0.2c-0.1-0.1,0-0.3,0.1-0.3l1.5-0.6
		c0.1-0.1,0.3,0,0.3,0.1c0.1,0.1,0,0.3-0.1,0.3L13.3,26.5C13.4,26.5,13.4,26.5,13.3,26.5z M16.4,25.2c-0.1,0-0.2-0.1-0.2-0.2
		c-0.1-0.1,0-0.3,0.1-0.3l1.5-0.6c0.1-0.1,0.3,0,0.3,0.1c0.1,0.1,0,0.3-0.1,0.3L16.4,25.2C16.4,25.2,16.4,25.2,16.4,25.2z"/>
	<path d="M2.7,31.5C2.7,31.5,2.7,31.5,2.7,31.5l-0.8-0.3c-0.1,0-0.2-0.1-0.2-0.2c0-0.1,0.1-0.2,0.2-0.2l0.8-0.3
		c0.1-0.1,0.3,0,0.3,0.1c0.1,0.1,0,0.3-0.1,0.3L2.5,31l0.3,0.2c0.1,0.1,0.2,0.2,0.1,0.3C2.9,31.4,2.8,31.5,2.7,31.5z"/>
	<path d="M17.9,37.9C17.9,37.9,17.8,37.9,17.9,37.9l-1.6-0.7c-0.1-0.1-0.2-0.2-0.1-0.3c0.1-0.1,0.2-0.2,0.3-0.1l1.5,0.7
		c0.1,0.1,0.2,0.2,0.1,0.3C18,37.9,18,37.9,17.9,37.9z M14.8,36.7L14.8,36.7L13.2,36c-0.1-0.1-0.2-0.2-0.1-0.3
		c0.1-0.1,0.2-0.2,0.3-0.1l1.5,0.7c0.1,0.1,0.2,0.2,0.1,0.3C15,36.6,14.9,36.7,14.8,36.7z M11.8,35.4L11.8,35.4l-1.6-0.7
		c-0.1-0.1-0.2-0.2-0.1-0.3c0.1-0.1,0.2-0.2,0.3-0.1l1.5,0.7c0.1,0.1,0.2,0.2,0.1,0.3C12,35.3,11.9,35.4,11.8,35.4z M8.7,34.1
		L8.7,34.1l-1.6-0.7c-0.1-0.1-0.2-0.2-0.1-0.3C7.1,33,7.2,33,7.3,33l1.5,0.7C8.9,33.8,9,33.9,8.9,34C8.9,34.1,8.8,34.1,8.7,34.1z
		 M5.8,32.8C5.7,32.8,5.7,32.8,5.8,32.8l-1.6-0.7C4.1,32,4,31.9,4.1,31.9s0.2-0.2,0.3-0.1l1.5,0.7C6,32.5,6,32.5,6,32.6
		C5.9,32.7,5.9,32.8,5.8,32.8z"/>
	<path d="M20.2,39L20.2,39l-0.8-0.3c-0.1-0.1-0.2-0.2-0.1-0.3c0.1-0.1,0.2-0.2,0.3-0.1l0.7,0.3l0.7-0.3c0.1-0.1,0.3,0,0.3,0.1
		c0.1,0.1,0,0.3-0.1,0.3L20.2,39C20.2,39,20.2,39,20.2,39z"/>
	<path d="M22.4,37.9c-0.1,0-0.2-0.1-0.2-0.2c-0.1-0.1,0-0.3,0.1-0.3l1.5-0.7c0.1-0.1,0.3,0,0.3,0.1c0.1,0.1,0,0.3-0.1,0.3L22.4,37.9
		C22.5,37.9,22.5,37.9,22.4,37.9z M25.5,36.7c-0.1,0-0.2-0.1-0.2-0.2c-0.1-0.1,0-0.3,0.1-0.3l1.5-0.7c0.1-0.1,0.3,0,0.3,0.1
		c0.1,0.1,0,0.3-0.1,0.3L25.5,36.7C25.6,36.7,25.5,36.7,25.5,36.7z M28.5,35.4c-0.1,0-0.2-0.1-0.2-0.2c-0.1-0.1,0-0.3,0.1-0.3
		l1.5-0.7c0.1-0.1,0.3,0,0.3,0.1c0.1,0.1,0,0.3-0.1,0.3L28.5,35.4C28.6,35.4,28.5,35.4,28.5,35.4z M31.6,34.1
		c-0.1,0-0.2-0.1-0.2-0.2c-0.1-0.1,0-0.3,0.1-0.3L33,33c0.1-0.1,0.3,0,0.3,0.1c0.1,0.1,0,0.3-0.1,0.3L31.6,34.1
		C31.6,34.1,31.6,34.1,31.6,34.1z M34.6,32.8c-0.1,0-0.2-0.1-0.2-0.2c-0.1-0.1,0-0.3,0.1-0.3l1.5-0.7c0.1-0.1,0.3,0,0.3,0.1
		c0.1,0.1,0,0.3-0.1,0.3L34.6,32.8L34.6,32.8z"/>
	<path d="M37.6,31.5c-0.1,0-0.2-0.1-0.2-0.2c-0.1-0.1,0-0.3,0.1-0.3l0.3-0.2l-0.3-0.2c-0.1-0.1-0.2-0.2-0.1-0.3s0.2-0.2,0.3-0.1
		l0.8,0.3c0.1,0,0.2,0.1,0.2,0.2c0,0.1-0.1,0.2-0.2,0.2L37.6,31.5L37.6,31.5z"/>
	<path d="M36.1,30.2C36,30.2,36,30.2,36.1,30.2l-1.6-0.7c-0.1-0.1-0.2-0.2-0.1-0.3s0.2-0.2,0.3-0.1l1.5,0.6c0.1,0.1,0.2,0.2,0.1,0.3
		C36.3,30.2,36.2,30.2,36.1,30.2z M33.1,28.9C33,28.9,33,28.9,33.1,28.9l-1.6-0.7c-0.1-0.1-0.2-0.2-0.1-0.3c0.1-0.1,0.2-0.2,0.3-0.1
		l1.5,0.6c0.1,0.1,0.2,0.2,0.1,0.3C33.3,28.9,33.2,28.9,33.1,28.9z M30,27.7C30,27.7,30,27.6,30,27.7L28.4,27
		c-0.1-0.1-0.2-0.2-0.1-0.3c0.1-0.1,0.2-0.2,0.3-0.1l1.5,0.6c0.1,0.1,0.2,0.2,0.1,0.3C30.2,27.6,30.1,27.7,30,27.7z M27,26.5
		C27,26.5,26.9,26.5,27,26.5l-1.6-0.7c-0.1-0.1-0.2-0.2-0.1-0.3c0.1-0.1,0.2-0.2,0.3-0.1l1.5,0.6c0.1,0.1,0.2,0.2,0.1,0.3
		C27.2,26.4,27.1,26.5,27,26.5z M24,25.2L24,25.2l-1.6-0.7c-0.1-0.1-0.2-0.2-0.1-0.3s0.2-0.2,0.3-0.1l1.5,0.6
		c0.1,0.1,0.2,0.2,0.1,0.3C24.1,25.1,24,25.2,24,25.2z"/>
</g>
<g>
	<path class="st0" d="M20.2,23.3"/>
</g>
<g>
	<polygon class="st0" points="20.2,33.3 8.2,28.3 8.2,14.5 20.2,19.5 	"/>
	<path d="M20.2,33.5L20.2,33.5l-12-5c-0.1,0-0.2-0.1-0.2-0.2V14.5c0-0.1,0-0.2,0.1-0.2c0.1,0,0.2-0.1,0.2,0l11.9,5.1
		c0.1,0,0.2,0.1,0.2,0.2v13.8C20.3,33.4,20.3,33.5,20.2,33.5C20.2,33.5,20.2,33.5,20.2,33.5z M8.4,28.1L19.9,33V19.7L8.4,14.8V28.1z
		"/>
</g>
<g>
	<polygon class="st0" points="20.2,33.3 32.2,28.3 32.2,14.5 20.2,19.5 	"/>
	<path d="M20.2,33.5L20.2,33.5c-0.2,0-0.2-0.1-0.2-0.2V19.5c0-0.1,0.1-0.2,0.2-0.2l11.9-5.1c0.1,0,0.2,0,0.2,0
		c0.1,0,0.1,0.1,0.1,0.2v13.9c0,0.1-0.1,0.2-0.2,0.2L20.2,33.5C20.2,33.5,20.2,33.5,20.2,33.5z M20.4,19.7V33l11.5-4.8V14.8
		L20.4,19.7z"/>
</g>
<g>
	<polygon class="st0" points="20.2,19.5 32.2,14.5 20.2,9.4 8.2,14.5 	"/>
	<path d="M20.2,19.7L20.2,19.7l-12-5.1c-0.1,0-0.2-0.1-0.2-0.2s0.1-0.2,0.2-0.2l11.9-5.1c0.1,0,0.1,0,0.2,0l11.9,5.1
		c0.1,0,0.2,0.1,0.2,0.2s-0.1,0.2-0.2,0.2L20.2,19.7C20.2,19.7,20.2,19.7,20.2,19.7z M8.7,14.5l11.4,4.8l11.4-4.8L20.2,9.6L8.7,14.5
		z"/>
</g>
<g>
	<path class="st0" d="M20.2,19.5"/>
</g>
</svg>
