<?xml version="1.0" encoding="utf-8"?>
<!-- Generator: Adobe Illustrator 26.0.3, SVG Export Plug-In . SVG Version: 6.00 Build 0)  -->
<svg version="1.1" id="Layer_1" xmlns="http://www.w3.org/2000/svg" xmlns:xlink="http://www.w3.org/1999/xlink" x="0px" y="0px"
	 viewBox="0 0 50 50" style="enable-background:new 0 0 50 50;" xml:space="preserve">
<style type="text/css">
	.st0{fill:none;stroke:#000000;stroke-linecap:round;stroke-linejoin:round;stroke-miterlimit:10;}
	.st1{fill:none;stroke:#000000;stroke-width:2;stroke-linecap:round;stroke-linejoin:round;stroke-miterlimit:10;}
</style>
<circle class="st0" cx="25" cy="25" r="9.7"/>
<circle class="st1" cx="25" cy="25" r="9.7"/>
<line class="st1" x1="25" y1="11.6" x2="25" y2="5.8"/>
<line class="st1" x1="25" y1="44.2" x2="25" y2="38.4"/>
<line class="st1" x1="38.4" y1="25" x2="44.2" y2="25"/>
<line class="st1" x1="5.8" y1="25" x2="11.6" y2="25"/>
<line class="st0" x1="16.1" y1="16.1" x2="12.2" y2="12.2"/>
<line class="st0" x1="37.8" y1="37.8" x2="33.9" y2="33.9"/>
<line class="st0" x1="33.9" y1="16.1" x2="37.8" y2="12.2"/>
<line class="st0" x1="12.2" y1="37.8" x2="16.1" y2="33.9"/>
<line class="st0" x1="20.2" y1="13.4" x2="18.1" y2="8.3"/>
<line class="st0" x1="31.9" y1="41.7" x2="29.8" y2="36.6"/>
<line class="st0" x1="36.6" y1="20.2" x2="41.7" y2="18.1"/>
<line class="st0" x1="8.3" y1="31.9" x2="13.4" y2="29.8"/>
<line class="st0" x1="13.5" y1="19.9" x2="8.5" y2="17.6"/>
<line class="st0" x1="41.5" y1="32.4" x2="36.5" y2="30.1"/>
<line class="st0" x1="30.1" y1="13.5" x2="32.4" y2="8.5"/>
<line class="st0" x1="17.6" y1="41.5" x2="19.9" y2="36.5"/>
</svg>
