<svg id="a879c088-dc36-40f0-96e6-03faf18382f6" data-name="Layer 1" xmlns="http://www.w3.org/2000/svg" viewBox="0 0 50 50"><polygon points="22.32 46.43 22.34 37.31 22.3 35.39 21.84 35.18 21.55 34.91 20.96 34.32 15.05 33.17 13.2 28.73 9.65 26.45 9.22 17.79 17.32 12.74 19.1 7.54 21.33 2.77 27.68 4.56 29.95 9.6 35.85 10.94 40.62 18.05 41.84 21.25 42.23 27.32 39.45 32.61 34.74 36.92 27.71 35.59 26.78 36.11 25.34 36.03 25.34 37.29 25.42 46.43 22.32 46.43" fill="#fff"/><path d="M22.15,4.56,26.6,5.82l2.29,5.08,6,1.37,4.34,6.48,1.08,2.82L40.7,27l-2.45,4.68-4,3.63L27.46,34l-1,.57-2.59-.15h0l-1.17-.52-.06-.06-.92-.91-5.56-1.09-1.72-4.13-3.3-2.12-.35-7,7.8-4.87L20.49,8.1l1.66-3.54m1.64,29.87h.05V37.3l-.05-2.87m.05,2.87v.26l.06,7.37h-.08l0-7.63M20.51,1,19.43,3.29,17.78,6.83,17.71,7l-.05.15-1.59,4.62-6.9,4.3L7.68,17l.09,1.76.34,7,.08,1.54,1.3.84L12,29.74,13.36,33,14,34.48l1.57.31,4.67.91.26.27.06.06.06,0,.07.06.15.14,0,1,0,7.6v3h6.11l0-3-.06-7.28.28,0,.77-.43.08,0,5.76,1.09,1.47.28,1.11-1,4-3.63.39-.35.25-.47,2.45-4.68.39-.74,0-.84-.35-5.42,0-.46-.17-.43-1.08-2.83L42,17.36l-.19-.28L37.43,10.6l-.67-1L35.6,9.34,31,8.3,29.34,4.59l-.58-1.28-1.34-.38L23,1.67,20.51,1Z" fill="#1a1a1a"/><polygon points="22.15 4.56 20.49 8.1 18.56 13.73 10.76 18.6 11.11 25.6 14.41 27.72 16.13 31.85 21.69 32.94 22.61 33.85 24.55 34.75 26.43 34.59 27.46 34.02 34.28 35.31 40.7 27 40.36 21.57 39.28 18.75 34.94 12.27 28.89 10.9 26.6 5.82 22.15 4.56" fill="#e6e6e6"/><polygon points="34.94 12.27 39.28 18.75 40.36 21.57 40.7 27 38.25 31.68 34.28 35.31 27.49 34.69 24.55 34.75 22.67 33.91 21.69 32.94 16.13 31.85 22.47 29.57 30.14 31.41 33.54 31.66 38.24 27.59 37.12 22.11 34.94 12.27" fill="#b3b3b3"/><polygon points="10.76 18.6 11.11 25.6 14.41 27.72 16.69 27.49 22.01 26.22 25.46 27.49 21.96 24.66 20.9 21.81 19.63 24.45 15.98 25.66 13.34 23.97 10.76 18.6" fill="#999"/><polygon points="26.6 5.82 28.89 10.9 28.5 14.61 26.6 17.91 21.4 19.53 25.14 17.2 27.28 12.99 24.55 9.95 26.73 9.64 26.6 5.82" fill="#999"/><polygon points="14.41 27.72 16.69 27.49 22.01 26.22 25.46 27.49 22.01 25.69 20.46 25.56 19.6 26.27 16.73 27.01 14.24 27.12 11.89 25.22 10.99 23.04 11.11 25.6 14.41 27.72" fill="#666"/><polygon points="34.28 35.31 38.25 31.68 40.7 27 40.36 21.57 40.11 26.47 38.49 29.87 37.37 29.87 37.76 30.99 36.03 32.52 34.28 33.91 31.45 34.2 29.49 34.88 34.28 35.31" fill="#666"/><polygon points="28.89 10.9 28.5 14.61 26.6 17.91 25 18.41 26.44 17.65 28.06 14.3 28.37 10.9 27.83 8.56 28.89 10.9" fill="#666"/><polygon points="26.94 20.15 29.52 21.57 32.91 21.57 35.22 20.8 33.93 22.06 31.9 23.23 31.08 22.82 29.16 23.58 28.25 22.47 26.94 20.15" fill="#b3b3b3"/><polygon points="22.15 4.56 20.49 8.1 18.56 13.73 20.64 11.47 22.15 8.56 22.87 6.04 25.46 5.5 22.15 4.56" fill="#fff"/><polygon points="10.76 18.6 18.56 13.73 14.71 18.65 10.76 18.6" fill="#fff"/><polygon points="28.89 10.9 28.5 14.61 26.6 17.91 29.36 15.17 30.17 12.67 32.35 12.27 33.47 11.94 28.89 10.9" fill="#fff"/></svg>