<?xml version="1.0" encoding="utf-8"?>
<!-- Generator: Adobe Illustrator 26.0.3, SVG Export Plug-In . SVG Version: 6.00 Build 0)  -->
<svg version="1.1" id="Layer_1" xmlns="http://www.w3.org/2000/svg" xmlns:xlink="http://www.w3.org/1999/xlink" x="0px" y="0px"
	 viewBox="0 0 50 50" style="enable-background:new 0 0 50 50;" xml:space="preserve">
<style type="text/css">
	.st0{fill:none;}
	.st1{fill:none;stroke:#000000;stroke-miterlimit:10;}
</style>
<path d="M25,12.6c-0.6,0-1-0.4-1-1V5.8c0-0.6,0.4-1,1-1s1,0.4,1,1v5.8C26,12.2,25.6,12.6,25,12.6z"/>
<path d="M44.2,26h-5.8c-0.6,0-1-0.4-1-1s0.4-1,1-1h5.8c0.6,0,1,0.4,1,1S44.8,26,44.2,26z"/>
<path d="M11.6,26H5.8c-0.6,0-1-0.4-1-1s0.4-1,1-1h5.8c0.6,0,1,0.4,1,1S12.2,26,11.6,26z"/>
<path d="M16.1,16.6c-0.1,0-0.3,0-0.4-0.1l-3.9-3.9c-0.2-0.2-0.2-0.5,0-0.7s0.5-0.2,0.7,0l3.9,3.9c0.2,0.2,0.2,0.5,0,0.7
	C16.4,16.6,16.2,16.6,16.1,16.6z"/>
<path d="M33.9,16.6c-0.1,0-0.3,0-0.4-0.1c-0.2-0.2-0.2-0.5,0-0.7l3.9-3.9c0.2-0.2,0.5-0.2,0.7,0s0.2,0.5,0,0.7l-3.9,3.9
	C34.2,16.6,34,16.6,33.9,16.6z"/>
<path d="M20.2,13.9c-0.2,0-0.4-0.1-0.5-0.3l-2.1-5.1c-0.1-0.3,0-0.5,0.3-0.7c0.3-0.1,0.5,0,0.7,0.3l2.1,5.1c0.1,0.3,0,0.5-0.3,0.7
	C20.3,13.9,20.3,13.9,20.2,13.9z"/>
<path d="M36.6,20.7c-0.2,0-0.4-0.1-0.5-0.3c-0.1-0.3,0-0.5,0.3-0.7l5.1-2.1c0.3-0.1,0.5,0,0.7,0.3c0.1,0.3,0,0.5-0.3,0.7l-5.1,2.1
	C36.7,20.7,36.7,20.7,36.6,20.7z"/>
<path d="M13.5,20.4c-0.1,0-0.1,0-0.2,0l-5-2.3C8,17.9,7.9,17.6,8,17.4c0.1-0.3,0.4-0.4,0.7-0.2l5,2.3c0.3,0.1,0.4,0.4,0.2,0.7
	C13.9,20.3,13.7,20.4,13.5,20.4z"/>
<path d="M30.1,14c-0.1,0-0.1,0-0.2,0c-0.3-0.1-0.4-0.4-0.2-0.7l2.3-5C32.1,8,32.4,7.9,32.6,8c0.3,0.1,0.4,0.4,0.2,0.7l-2.3,5
	C30.5,13.9,30.3,14,30.1,14z"/>
<g>
	<path class="st0" d="M25,16.3c-4.8,0-8.7,3.9-8.7,8.7c0,1.3,0.3,2.5,0.8,3.7h15.8c0.5-1.1,0.8-2.3,0.8-3.7
		C33.7,20.2,29.8,16.3,25,16.3z"/>
	<path d="M16.3,25c0-4.8,3.9-8.7,8.7-8.7c4.8,0,8.7,3.9,8.7,8.7c0,1.3-0.3,2.5-0.8,3.7H35c0.4-1.1,0.7-2.4,0.7-3.7
		c0-5.9-4.8-10.7-10.7-10.7c-5.9,0-10.7,4.8-10.7,10.7c0,1.3,0.2,2.5,0.7,3.7h2.2C16.6,27.5,16.3,26.3,16.3,25z"/>
</g>
<line class="st1" x1="48.5" y1="31" x2="2.3" y2="31"/>
<line class="st1" x1="37.4" y1="35" x2="4.8" y2="35"/>
<line class="st1" x1="28.9" y1="39.8" x2="8" y2="39.8"/>
</svg>
