<?xml version="1.0" encoding="utf-8"?>
<!-- Generator: Adobe Illustrator 26.0.3, SVG Export Plug-In . SVG Version: 6.00 Build 0)  -->
<svg version="1.1" id="Layer_1" xmlns="http://www.w3.org/2000/svg" xmlns:xlink="http://www.w3.org/1999/xlink" x="0px" y="0px"
	 viewBox="0 0 30 30" style="enable-background:new 0 0 30 30;" xml:space="preserve">
<style type="text/css">
	.st0{fill:#FFFFFF;}
</style>
<g>
	<rect x="2" y="0.6" class="st0" width="26.3" height="15.9"/>
	<path d="M28.8,17H1.5V0.1h27.3V17z M2.5,16h25.3V1.1H2.5V16z"/>
</g>
<g>
	<polygon class="st0" points="12.3,7.8 12.3,26.2 16.6,24.1 19.2,29 23.7,27.1 21,22.1 26,21.4 	"/>
	<path d="M19.2,29.5c-0.2,0-0.4-0.1-0.5-0.3l-2.4-4.4l-3.8,1.8c-0.2,0.1-0.4,0.1-0.5,0c-0.2-0.1-0.3-0.3-0.3-0.4V7.8
		c0-0.2,0.1-0.4,0.3-0.5c0.2-0.1,0.4,0,0.6,0.1l13.7,13.7c0.1,0.1,0.2,0.3,0.1,0.5c-0.1,0.2-0.2,0.3-0.4,0.3l-4.2,0.5l2.4,4.4
		c0.1,0.1,0.1,0.3,0,0.4c0,0.1-0.2,0.2-0.3,0.3l-4.5,1.9C19.4,29.5,19.3,29.5,19.2,29.5z M16.6,23.6c0.1,0,0.1,0,0.2,0
		c0.1,0,0.2,0.1,0.3,0.2l2.4,4.5l3.6-1.5l-2.5-4.5c-0.1-0.1-0.1-0.3,0-0.5c0.1-0.1,0.2-0.2,0.4-0.3l3.9-0.5L12.8,9v16.3l3.5-1.7
		C16.4,23.6,16.5,23.6,16.6,23.6z"/>
</g>
<path d="M10.5,14.1c-2.6-0.8-4.4-3.2-4.4-6c0-3.5,2.8-6.3,6.3-6.3c3.5,0,6.3,2.8,6.3,6.3c0,1-0.2,1.9-0.6,2.8l-0.4-0.2
	c0.4-0.8,0.6-1.7,0.6-2.6c0-3.2-2.6-5.8-5.8-5.8C9.2,2.4,6.7,5,6.7,8.2c0,2.5,1.6,4.7,4,5.5L10.5,14.1z"/>
<path d="M11.3,11.6c-1.5-0.5-2.6-1.9-2.6-3.5c0-2,1.7-3.7,3.7-3.7s3.7,1.7,3.7,3.7c0,0.6-0.1,1.1-0.4,1.6l-0.4-0.2
	c0.2-0.4,0.3-0.9,0.3-1.4c0-1.8-1.4-3.2-3.2-3.2c-1.8,0-3.2,1.4-3.2,3.2c0,1.4,0.9,2.6,2.2,3L11.3,11.6z"/>
</svg>
