<?xml version="1.0" encoding="utf-8"?>
<!-- Generator: Adobe Illustrator 26.0.3, SVG Export Plug-In . SVG Version: 6.00 Build 0)  -->
<svg version="1.1" id="Layer_1" xmlns="http://www.w3.org/2000/svg" xmlns:xlink="http://www.w3.org/1999/xlink" x="0px" y="0px"
	 viewBox="0 0 50 50" style="enable-background:new 0 0 50 50;" xml:space="preserve">
<style type="text/css">
	.st0{fill:#FFFFFF;}
	.st1{fill:#FFFFFF;stroke:#000000;stroke-linecap:round;stroke-linejoin:round;stroke-miterlimit:10;}
</style>
<g>
	<path class="st0" d="M25,44.2c-0.2,0-0.3,0-0.5-0.1l-18-7.5C6,36.4,5.7,36,5.7,35.5V14.7c0-0.5,0.3-1,0.8-1.1l18-7.7
		c0.2-0.1,0.3-0.1,0.5-0.1c0.2,0,0.3,0,0.5,0.1l18,7.7c0.5,0.2,0.8,0.6,0.8,1.1v20.8c0,0.5-0.3,1-0.8,1.2l-18,7.5
		C25.3,44.2,25.2,44.2,25,44.2z"/>
	<path d="M25,7l18,7.7v20.8L25,43L7,35.5V14.7L25,7 M25,4.5c-0.3,0-0.7,0.1-1,0.2L6,12.4c-0.9,0.4-1.5,1.3-1.5,2.3v20.8
		c0,1,0.6,1.9,1.5,2.3l18,7.5c0.3,0.1,0.6,0.2,1,0.2s0.7-0.1,1-0.2l18-7.5c0.9-0.4,1.5-1.3,1.5-2.3V14.7c0-1-0.6-1.9-1.5-2.3L26,4.7
		C25.7,4.6,25.3,4.5,25,4.5L25,4.5z"/>
</g>
<polygon class="st1" points="25,43 7,35.5 7,14.7 25,22.2 "/>
<polygon class="st1" points="43,14.7 25,7 7,14.7 25,22.2 "/>
<polygon class="st1" points="25,22.2 25,43 43,35.5 43,14.7 "/>
</svg>
