<svg id="ae0b381d-263d-4d85-8cee-74003d9e304a" data-name="b2a23365-4853-4b8a-a57e-d8a594625f07" xmlns="http://www.w3.org/2000/svg" viewBox="0 0 40 40"><path d="M30.39,21.76,25.9,19A6.22,6.22,0,1,0,17,13.42v.25l-5.28-3.19a.77.77,0,0,0-.69.06.64.64,0,0,0-.19.62l4.93,20.07a.6.6,0,0,0,.44.36.48.48,0,0,0,.54-.14l3.67-3,3.79,4.16a.61.61,0,0,0,.62.2c.12,0,.22-.06.2-.17l4.4-3.27c.08-.14.27-.3.24-.42a.32.32,0,0,0-.1-.43L25.83,24.4l4.4-1.67c.22-.05.3-.19.36-.43A.51.51,0,0,0,30.39,21.76Z" fill="#fff" stroke="#1a1a1a" stroke-linecap="round" stroke-linejoin="round" stroke-width="2.5"/><path d="M23.15,10.69a.9.9,0,0,1-.64-.22.75.75,0,0,1-.22-.59.77.77,0,0,1,.22-.58,1,1,0,0,1,1.26,0,.74.74,0,0,1,.23.58.76.76,0,0,1-.23.59A.88.88,0,0,1,23.15,10.69Zm-.7,6.67V11.71h1.38v5.65Z"/><circle cx="23.25" cy="13.4" r="6.23" fill="#fff" stroke="#1a1a1a" stroke-miterlimit="10"/><path d="M23.15,10.69a.9.9,0,0,1-.64-.22.75.75,0,0,1-.22-.59.77.77,0,0,1,.22-.58,1,1,0,0,1,1.26,0,.74.74,0,0,1,.23.58.76.76,0,0,1-.23.59A.88.88,0,0,1,23.15,10.69Zm-.7,6.67V11.71h1.38v5.65Z" fill="#1a1a1a"/></svg>